<svg width="50" height="43" viewBox="0 0 50 43" fill="none" xmlns="http://www.w3.org/2000/svg">
<path d="M0 20.7839H9.27564C11.3921 20.7839 13.5847 20.656 15.3861 19.5547C16.7943 18.6939 17.9797 17.5179 18.8473 16.1209C19.9573 14.3337 20.0863 12.1585 20.0863 10.0588V0.856535H6.34304C4.66076 0.856535 3.04738 1.51953 1.85783 2.69967C0.668283 3.87981 0 5.48042 0 7.14939L0 20.7839ZM49.111 2.95415C49.111 3.51048 48.8882 4.04401 48.4917 4.43739C48.0952 4.83077 47.5574 5.05177 46.9966 5.05177C46.4359 5.05177 45.8981 4.83077 45.5016 4.43739C45.1051 4.04401 44.8823 3.51048 44.8823 2.95415C44.8823 2.39783 45.1051 1.86429 45.5016 1.47091C45.8981 1.07753 46.4359 0.856535 46.9966 0.856535C47.5574 0.856535 48.0952 1.07753 48.4917 1.47091C48.8882 1.86429 49.111 2.39783 49.111 2.95415Z" fill="#8B3E2F"/>
<path d="M21.1436 42.8089C32.8211 42.8089 42.2871 33.4179 42.2871 21.8327V7.1494C42.2871 5.48043 41.6188 3.87981 40.4292 2.69967C39.2397 1.51953 37.6263 0.856539 35.944 0.856539L22.2008 0.856539V10.0588C22.2008 12.1585 22.3298 14.3337 23.4398 16.1209C24.2345 17.4017 25.2975 18.498 26.5569 19.3353C27.8162 20.1726 29.2423 20.7314 30.7385 20.9738L31.1434 21.0388C31.3103 21.0954 31.4552 21.2024 31.5578 21.3447C31.6604 21.4871 31.7156 21.6577 31.7156 21.8327C31.7156 22.0077 31.6604 22.1784 31.5578 22.3207C31.4552 22.4631 31.3103 22.5701 31.1434 22.6267L30.7385 22.6917C28.5525 23.046 26.5338 24.0725 24.9675 25.6264C23.4013 27.1803 22.3665 29.183 22.0094 31.3517L21.9439 31.7534C21.8868 31.919 21.779 32.0628 21.6355 32.1646C21.492 32.2664 21.32 32.3211 21.1436 32.3211C20.9672 32.3211 20.7952 32.2664 20.6517 32.1646C20.5082 32.0628 20.4004 31.919 20.3433 31.7534L20.2778 31.3517C20.0334 29.8674 19.4702 28.4526 18.6262 27.2032C17.7822 25.9538 16.6772 24.8992 15.3862 24.1107C13.5848 23.0095 11.3922 22.8815 9.27578 22.8815H0.0255127C0.578414 33.979 9.82128 42.8089 21.1436 42.8089Z" fill="#8B3E2F"/>
</svg>
